<svg width="18" height="18" viewBox="0 0 18 18" fill="none" xmlns="http://www.w3.org/2000/svg">
<path d="M6.75 6.75C6.74839 6.25244 6.58189 5.76944 6.27655 5.37658C5.97122 4.98371 5.54427 4.70314 5.0625 4.57875V2.8125C5.0625 2.66332 5.00324 2.52024 4.89775 2.41475C4.79226 2.30926 4.64919 2.25 4.5 2.25C4.35082 2.25 4.20774 2.30926 4.10226 2.41475C3.99677 2.52024 3.9375 2.66332 3.9375 2.8125V4.57875C3.46086 4.70828 3.04008 4.99106 2.74009 5.38346C2.4401 5.77586 2.27757 6.25607 2.27757 6.75C2.27757 7.24393 2.4401 7.72414 2.74009 8.11654C3.04008 8.50894 3.46086 8.79172 3.9375 8.92125V15.1875C3.9375 15.3367 3.99677 15.4798 4.10226 15.5852C4.20774 15.6907 4.35082 15.75 4.5 15.75C4.64919 15.75 4.79226 15.6907 4.89775 15.5852C5.00324 15.4798 5.0625 15.3367 5.0625 15.1875V8.92125C5.54427 8.79686 5.97122 8.51629 6.27655 8.12342C6.58189 7.73056 6.74839 7.24756 6.75 6.75ZM4.5 7.875C4.2775 7.875 4.05999 7.80902 3.87499 7.6854C3.68998 7.56179 3.54579 7.38609 3.46064 7.18052C3.37549 6.97495 3.35321 6.74875 3.39662 6.53052C3.44003 6.31229 3.54717 6.11184 3.70451 5.9545C3.86184 5.79717 4.0623 5.69002 4.28053 5.64662C4.49875 5.60321 4.72495 5.62549 4.93052 5.71064C5.13609 5.79578 5.31179 5.93998 5.43541 6.12498C5.55902 6.30999 5.625 6.5275 5.625 6.75C5.625 7.04837 5.50648 7.33452 5.2955 7.5455C5.08452 7.75647 4.79837 7.875 4.5 7.875ZM9.5625 10.2037V2.8125C9.5625 2.66332 9.50324 2.52024 9.39775 2.41475C9.29226 2.30926 9.14919 2.25 9 2.25C8.85082 2.25 8.70775 2.30926 8.60226 2.41475C8.49677 2.52024 8.4375 2.66332 8.4375 2.8125V10.2037C7.96086 10.3333 7.54008 10.6161 7.24009 11.0085C6.9401 11.4009 6.77757 11.8811 6.77757 12.375C6.77757 12.8689 6.9401 13.3491 7.24009 13.7415C7.54008 14.1339 7.96086 14.4167 8.4375 14.5463V15.1875C8.4375 15.3367 8.49677 15.4798 8.60226 15.5852C8.70775 15.6907 8.85082 15.75 9 15.75C9.14919 15.75 9.29226 15.6907 9.39775 15.5852C9.50324 15.4798 9.5625 15.3367 9.5625 15.1875V14.5463C10.0391 14.4167 10.4599 14.1339 10.7599 13.7415C11.0599 13.3491 11.2224 12.8689 11.2224 12.375C11.2224 11.8811 11.0599 11.4009 10.7599 11.0085C10.4599 10.6161 10.0391 10.3333 9.5625 10.2037ZM9 13.5C8.7775 13.5 8.55999 13.434 8.37499 13.3104C8.18998 13.1868 8.04579 13.0111 7.96064 12.8055C7.87549 12.6 7.85321 12.3738 7.89662 12.1555C7.94003 11.9373 8.04717 11.7368 8.20451 11.5795C8.36184 11.4222 8.5623 11.315 8.78053 11.2716C8.99875 11.2282 9.22496 11.2505 9.43052 11.3356C9.63609 11.4208 9.81179 11.565 9.93541 11.75C10.059 11.935 10.125 12.1525 10.125 12.375C10.125 12.6734 10.0065 12.9595 9.7955 13.1705C9.58452 13.3815 9.29837 13.5 9 13.5ZM15.75 5.625C15.7484 5.12744 15.5819 4.64444 15.2766 4.25158C14.9712 3.85871 14.5443 3.57814 14.0625 3.45375V2.8125C14.0625 2.66332 14.0032 2.52024 13.8978 2.41475C13.7923 2.30926 13.6492 2.25 13.5 2.25C13.3508 2.25 13.2077 2.30926 13.1023 2.41475C12.9968 2.52024 12.9375 2.66332 12.9375 2.8125V3.45375C12.4609 3.58328 12.0401 3.86606 11.7401 4.25846C11.4401 4.65086 11.2776 5.13107 11.2776 5.625C11.2776 6.11893 11.4401 6.59914 11.7401 6.99154C12.0401 7.38394 12.4609 7.66672 12.9375 7.79625V15.1875C12.9375 15.3367 12.9968 15.4798 13.1023 15.5852C13.2077 15.6907 13.3508 15.75 13.5 15.75C13.6492 15.75 13.7923 15.6907 13.8978 15.5852C14.0032 15.4798 14.0625 15.3367 14.0625 15.1875V7.79625C14.5443 7.67186 14.9712 7.39129 15.2766 6.99842C15.5819 6.60556 15.7484 6.12256 15.75 5.625ZM13.5 6.75C13.2775 6.75 13.06 6.68402 12.875 6.5604C12.69 6.43679 12.5458 6.26109 12.4606 6.05552C12.3755 5.84995 12.3532 5.62375 12.3966 5.40552C12.44 5.18729 12.5472 4.98684 12.7045 4.8295C12.8618 4.67217 13.0623 4.56502 13.2805 4.52162C13.4988 4.47821 13.725 4.50049 13.9305 4.58564C14.1361 4.67078 14.3118 4.81498 14.4354 4.99998C14.559 5.18499 14.625 5.4025 14.625 5.625C14.625 5.92337 14.5065 6.20952 14.2955 6.4205C14.0845 6.63147 13.7984 6.75 13.5 6.75Z" fill="#7ED957"/>
</svg>
